<svg width="159" height="30" viewBox="0 0 159 30" fill="none" xmlns="http://www.w3.org/2000/svg">
<mask id="mask0_5458_2" style="mask-type:luminance" maskUnits="userSpaceOnUse" x="0" y="0" width="30" height="30">
<path d="M30 0H0V30H30V0Z" fill="white"/>
</mask>
<g mask="url(#mask0_5458_2)">
<path d="M15.4842 10.6055H6.37974L0 20.2985L6.37974 30.0011H15.4842L9.26583 20.2985L15.4842 10.6055Z" fill="#A375FF"/>
<path d="M26.216 0L12.8584 20.2975H22.1242L30.004 8.14557L26.216 0Z" fill="#A375FF"/>
</g>
<path d="M43.6367 28.2805V4.75781H52.3558C56.0567 4.75781 58.8794 5.79281 60.824 7.86281C62.7894 9.93281 63.7722 12.8183 63.7722 16.5192C63.7722 20.2201 62.7894 23.1055 60.824 25.1755C58.8794 27.2455 56.0567 28.2805 52.3558 28.2805H43.6367ZM47.9335 24.3914H52.3558C54.5931 24.3914 56.3076 23.7328 57.4994 22.4155C58.6913 21.0774 59.2872 19.1119 59.2872 16.5192C59.2872 13.9265 58.6913 11.961 57.4994 10.6228C56.3076 9.28462 54.5931 8.61554 52.3558 8.61554H47.9335V24.3914Z" fill="black"/>
<path d="M66.9951 13.8533H70.9156V28.2806H66.9951V13.8533ZM70.9156 8.23926V12.1597H66.9951V8.23926H70.9156Z" fill="black"/>
<path d="M76.6279 13.8535L79.5134 20.5026C79.8689 21.2972 80.0988 21.9872 80.2034 22.5726C80.308 23.158 80.3602 23.7331 80.3602 24.2976V24.7994H81.3638V24.2976C81.3638 23.7331 81.4161 23.158 81.5207 22.5726C81.6253 21.9662 81.8448 21.2762 82.1793 20.5026L85.0648 13.8535H89.1107L82.8693 28.2808H78.8234L72.582 13.8535H76.6279Z" fill="black"/>
<path d="M95.1455 4.13086V12.5363C95.1455 13.4563 95.0828 14.1986 94.9573 14.7631C94.8319 15.3068 94.6646 15.819 94.4555 16.3L95.4278 16.5509C95.8878 15.5472 96.5986 14.7945 97.5605 14.2927C98.5223 13.7909 99.6409 13.54 100.916 13.54C101.774 13.54 102.589 13.6863 103.363 13.979C104.136 14.2718 104.816 14.7318 105.401 15.359C105.987 15.9863 106.457 16.8018 106.813 17.8054C107.168 18.7882 107.346 19.98 107.346 21.3809V28.2809H103.3V21.3809C103.3 20.5235 103.195 19.8127 102.986 19.2481C102.777 18.6627 102.495 18.1923 102.14 17.8368C101.784 17.4813 101.356 17.2304 100.854 17.084C100.352 16.9377 99.8082 16.8645 99.2228 16.8645C98.1354 16.8645 97.2469 17.0527 96.5569 17.429C95.8669 17.8054 95.3964 18.1609 95.1455 18.4954V28.2809H91.0996V4.13086H95.1455Z" fill="black"/>
<path d="M113.663 13.8535V20.7535C113.663 21.6108 113.757 22.3322 113.945 22.9176C114.154 23.4822 114.426 23.9421 114.761 24.2976C115.116 24.6531 115.524 24.904 115.984 25.0503C116.444 25.1967 116.925 25.2699 117.427 25.2699C118.368 25.2699 119.162 25.0817 119.81 24.7053C120.479 24.329 120.939 23.9735 121.19 23.639V13.8535H125.236V28.2808H121.19C121.19 27.9044 121.253 27.5281 121.379 27.1517C121.504 26.7545 121.671 26.3154 121.88 25.8344L120.908 25.5835C120.448 26.5872 119.748 27.3399 118.807 27.8417C117.887 28.3435 116.862 28.5944 115.733 28.5944C114.959 28.5944 114.207 28.4481 113.475 28.1553C112.743 27.8626 112.084 27.4131 111.499 26.8067C110.934 26.1794 110.474 25.3848 110.119 24.4231C109.784 23.4403 109.617 22.259 109.617 20.879V13.8535H113.663Z" fill="black"/>
<path d="M128.313 13.8537H132.359C132.359 14.23 132.297 14.6169 132.171 15.0141C132.046 15.3905 131.878 15.8191 131.669 16.3L132.642 16.5509C133.102 15.5473 133.781 14.7946 134.68 14.2928C135.6 13.7909 136.552 13.54 137.534 13.54C138.287 13.54 139.03 13.6864 139.761 13.9791C140.493 14.2719 141.141 14.7319 141.705 15.3591C142.292 15.9864 142.751 16.8019 143.085 17.8055C143.441 18.7883 143.618 19.9801 143.618 21.3809V28.281H139.572V21.3809C139.572 20.5236 139.469 19.8128 139.259 19.2482C139.071 18.6628 138.799 18.1924 138.443 17.8369C138.109 17.4814 137.712 17.2304 137.252 17.0841C136.812 16.9378 136.343 16.8646 135.841 16.8646C135.046 16.8646 134.325 17.0528 133.677 17.4291C133.049 17.8055 132.61 18.161 132.359 18.4955V28.281H128.313V13.8537Z" fill="black"/>
<path d="M146.165 17.2099V13.8539H149.082V7.26758H153.096V10.0276C153.096 10.9058 152.993 11.5853 152.783 12.0662C152.595 12.5471 152.229 12.9339 151.685 13.2267L151.967 14.1989C152.344 14.0526 152.731 13.9585 153.128 13.9167C153.546 13.8748 153.996 13.8539 154.476 13.8539H156.923V17.2099H153.096V23.3571C153.096 24.0263 153.17 24.4549 153.316 24.643C153.484 24.8312 153.84 24.9253 154.382 24.9253H155.668V28.2812H154.382C153.484 28.2812 152.7 28.229 152.03 28.1244C151.382 27.9989 150.838 27.7794 150.399 27.4658C149.96 27.1313 149.626 26.6817 149.395 26.1171C149.187 25.5526 149.082 24.8312 149.082 23.953V17.2099H146.165Z" fill="black"/>
</svg>
